<mxfile host="app.diagrams.net" modified="2024-06-22T19:58:38.272Z" agent="Mozilla/5.0 (Windows NT 10.0; Win64; x64) AppleWebKit/537.36 (KHTML, like Gecko) Chrome/126.0.0.0 Safari/537.36" etag="xozUccdv6sTX9ZYYMBXV" version="24.6.2" type="device">
  <diagram id="C5RBs43oDa-KdzZeNtuy" name="Page-1">
    <mxGraphModel dx="1591" dy="698" grid="1" gridSize="10" guides="1" tooltips="1" connect="1" arrows="1" fold="1" page="1" pageScale="1" pageWidth="827" pageHeight="1169" math="0" shadow="0">
      <root>
        <mxCell id="WIyWlLk6GJQsqaUBKTNV-0" />
        <mxCell id="WIyWlLk6GJQsqaUBKTNV-1" parent="WIyWlLk6GJQsqaUBKTNV-0" />
        <mxCell id="WIyWlLk6GJQsqaUBKTNV-2" value="" style="rounded=0;html=1;jettySize=auto;orthogonalLoop=1;fontSize=11;endArrow=block;endFill=0;endSize=8;strokeWidth=1;shadow=0;labelBackgroundColor=none;edgeStyle=orthogonalEdgeStyle;entryX=0.5;entryY=0;entryDx=0;entryDy=0;" parent="WIyWlLk6GJQsqaUBKTNV-1" source="WIyWlLk6GJQsqaUBKTNV-3" target="DkTkAI5OAFfcTrOTKt4v-0" edge="1">
          <mxGeometry relative="1" as="geometry">
            <mxPoint x="220.0000000000001" y="170" as="targetPoint" />
          </mxGeometry>
        </mxCell>
        <mxCell id="WIyWlLk6GJQsqaUBKTNV-3" value="new client connected" style="rounded=1;whiteSpace=wrap;html=1;fontSize=12;glass=0;strokeWidth=1;shadow=0;" parent="WIyWlLk6GJQsqaUBKTNV-1" vertex="1">
          <mxGeometry x="160" y="80" width="120" height="40" as="geometry" />
        </mxCell>
        <mxCell id="DkTkAI5OAFfcTrOTKt4v-0" value="LoginRequestHnadler" style="rounded=1;whiteSpace=wrap;html=1;" parent="WIyWlLk6GJQsqaUBKTNV-1" vertex="1">
          <mxGeometry x="160" y="160" width="120" height="40" as="geometry" />
        </mxCell>
        <mxCell id="DkTkAI5OAFfcTrOTKt4v-1" value="" style="endArrow=classic;html=1;rounded=0;exitX=0.5;exitY=1;exitDx=0;exitDy=0;entryX=0.5;entryY=0;entryDx=0;entryDy=0;" parent="WIyWlLk6GJQsqaUBKTNV-1" source="DkTkAI5OAFfcTrOTKt4v-0" target="DkTkAI5OAFfcTrOTKt4v-2" edge="1">
          <mxGeometry width="50" height="50" relative="1" as="geometry">
            <mxPoint x="300" y="250" as="sourcePoint" />
            <mxPoint x="230" y="240" as="targetPoint" />
          </mxGeometry>
        </mxCell>
        <mxCell id="DkTkAI5OAFfcTrOTKt4v-3" value="Text" style="edgeLabel;html=1;align=center;verticalAlign=middle;resizable=0;points=[];" parent="DkTkAI5OAFfcTrOTKt4v-1" vertex="1" connectable="0">
          <mxGeometry x="-0.4817" y="2" relative="1" as="geometry">
            <mxPoint x="-2" y="12" as="offset" />
          </mxGeometry>
        </mxCell>
        <mxCell id="DkTkAI5OAFfcTrOTKt4v-4" value="LogIn&lt;div&gt;SignUp&lt;/div&gt;" style="edgeLabel;html=1;align=center;verticalAlign=middle;resizable=0;points=[];" parent="DkTkAI5OAFfcTrOTKt4v-1" vertex="1" connectable="0">
          <mxGeometry x="-0.0607" y="2" relative="1" as="geometry">
            <mxPoint as="offset" />
          </mxGeometry>
        </mxCell>
        <mxCell id="DkTkAI5OAFfcTrOTKt4v-2" value="MenuRequest&lt;div&gt;Handler&lt;/div&gt;" style="rounded=1;whiteSpace=wrap;html=1;" parent="WIyWlLk6GJQsqaUBKTNV-1" vertex="1">
          <mxGeometry x="160" y="270" width="120" height="60" as="geometry" />
        </mxCell>
        <mxCell id="DkTkAI5OAFfcTrOTKt4v-5" value="" style="endArrow=classic;html=1;rounded=0;exitX=0.25;exitY=1;exitDx=0;exitDy=0;" parent="WIyWlLk6GJQsqaUBKTNV-1" source="DkTkAI5OAFfcTrOTKt4v-2" target="DkTkAI5OAFfcTrOTKt4v-6" edge="1">
          <mxGeometry width="50" height="50" relative="1" as="geometry">
            <mxPoint x="290" y="400" as="sourcePoint" />
            <mxPoint x="340" y="350" as="targetPoint" />
          </mxGeometry>
        </mxCell>
        <mxCell id="DkTkAI5OAFfcTrOTKt4v-7" value="JoinRoom" style="edgeLabel;html=1;align=center;verticalAlign=middle;resizable=0;points=[];" parent="DkTkAI5OAFfcTrOTKt4v-5" vertex="1" connectable="0">
          <mxGeometry x="0.0465" y="3" relative="1" as="geometry">
            <mxPoint as="offset" />
          </mxGeometry>
        </mxCell>
        <mxCell id="DkTkAI5OAFfcTrOTKt4v-6" value="RoomMember&lt;div&gt;RequestHandler&lt;/div&gt;" style="rounded=1;whiteSpace=wrap;html=1;" parent="WIyWlLk6GJQsqaUBKTNV-1" vertex="1">
          <mxGeometry x="80" y="409.9999999999999" width="120" height="60" as="geometry" />
        </mxCell>
        <mxCell id="DkTkAI5OAFfcTrOTKt4v-8" value="" style="endArrow=classic;html=1;rounded=0;exitX=0.5;exitY=1;exitDx=0;exitDy=0;entryX=0.25;entryY=0;entryDx=0;entryDy=0;" parent="WIyWlLk6GJQsqaUBKTNV-1" source="DkTkAI5OAFfcTrOTKt4v-2" target="DkTkAI5OAFfcTrOTKt4v-9" edge="1">
          <mxGeometry width="50" height="50" relative="1" as="geometry">
            <mxPoint x="290" y="400" as="sourcePoint" />
            <mxPoint x="340" y="350" as="targetPoint" />
          </mxGeometry>
        </mxCell>
        <mxCell id="DkTkAI5OAFfcTrOTKt4v-10" value="CreateRoom" style="edgeLabel;html=1;align=center;verticalAlign=middle;resizable=0;points=[];" parent="DkTkAI5OAFfcTrOTKt4v-8" vertex="1" connectable="0">
          <mxGeometry x="0.0979" y="-5" relative="1" as="geometry">
            <mxPoint as="offset" />
          </mxGeometry>
        </mxCell>
        <mxCell id="DkTkAI5OAFfcTrOTKt4v-9" value="RoomAdmin&lt;div&gt;RequestHandler&lt;/div&gt;" style="rounded=1;whiteSpace=wrap;html=1;" parent="WIyWlLk6GJQsqaUBKTNV-1" vertex="1">
          <mxGeometry x="414" y="409.9999999999999" width="120" height="60" as="geometry" />
        </mxCell>
        <mxCell id="DkTkAI5OAFfcTrOTKt4v-11" value="" style="endArrow=classic;html=1;rounded=0;exitX=1;exitY=0.25;exitDx=0;exitDy=0;entryX=1;entryY=0.5;entryDx=0;entryDy=0;" parent="WIyWlLk6GJQsqaUBKTNV-1" source="DkTkAI5OAFfcTrOTKt4v-2" target="DkTkAI5OAFfcTrOTKt4v-0" edge="1">
          <mxGeometry width="50" height="50" relative="1" as="geometry">
            <mxPoint x="270" y="330" as="sourcePoint" />
            <mxPoint x="320" y="280" as="targetPoint" />
            <Array as="points">
              <mxPoint x="380" y="285" />
              <mxPoint x="380" y="180" />
            </Array>
          </mxGeometry>
        </mxCell>
        <mxCell id="DkTkAI5OAFfcTrOTKt4v-12" value="LogOut" style="edgeLabel;html=1;align=center;verticalAlign=middle;resizable=0;points=[];" parent="DkTkAI5OAFfcTrOTKt4v-11" vertex="1" connectable="0">
          <mxGeometry x="0.0161" relative="1" as="geometry">
            <mxPoint as="offset" />
          </mxGeometry>
        </mxCell>
        <mxCell id="DkTkAI5OAFfcTrOTKt4v-13" value="GameRequest&lt;div&gt;Handler&lt;/div&gt;" style="rounded=1;whiteSpace=wrap;html=1;" parent="WIyWlLk6GJQsqaUBKTNV-1" vertex="1">
          <mxGeometry x="290" y="570" width="120" height="60" as="geometry" />
        </mxCell>
        <mxCell id="DkTkAI5OAFfcTrOTKt4v-14" value="" style="endArrow=classic;html=1;rounded=0;exitX=0.5;exitY=1;exitDx=0;exitDy=0;entryX=0.25;entryY=0;entryDx=0;entryDy=0;" parent="WIyWlLk6GJQsqaUBKTNV-1" source="DkTkAI5OAFfcTrOTKt4v-6" target="DkTkAI5OAFfcTrOTKt4v-13" edge="1">
          <mxGeometry width="50" height="50" relative="1" as="geometry">
            <mxPoint x="150" y="500" as="sourcePoint" />
            <mxPoint x="240" y="560" as="targetPoint" />
          </mxGeometry>
        </mxCell>
        <mxCell id="DkTkAI5OAFfcTrOTKt4v-17" value="StartGame" style="edgeLabel;html=1;align=center;verticalAlign=middle;resizable=0;points=[];" parent="DkTkAI5OAFfcTrOTKt4v-14" vertex="1" connectable="0">
          <mxGeometry x="0.0217" y="1" relative="1" as="geometry">
            <mxPoint y="1" as="offset" />
          </mxGeometry>
        </mxCell>
        <mxCell id="DkTkAI5OAFfcTrOTKt4v-15" value="" style="endArrow=classic;html=1;rounded=0;entryX=0.75;entryY=0;entryDx=0;entryDy=0;exitX=0.5;exitY=1;exitDx=0;exitDy=0;" parent="WIyWlLk6GJQsqaUBKTNV-1" source="DkTkAI5OAFfcTrOTKt4v-9" target="DkTkAI5OAFfcTrOTKt4v-13" edge="1">
          <mxGeometry width="50" height="50" relative="1" as="geometry">
            <mxPoint x="270" y="500" as="sourcePoint" />
            <mxPoint x="320" y="450" as="targetPoint" />
          </mxGeometry>
        </mxCell>
        <mxCell id="DkTkAI5OAFfcTrOTKt4v-16" value="GetRoomState" style="edgeLabel;html=1;align=center;verticalAlign=middle;resizable=0;points=[];" parent="DkTkAI5OAFfcTrOTKt4v-15" vertex="1" connectable="0">
          <mxGeometry x="0.1371" relative="1" as="geometry">
            <mxPoint x="1" as="offset" />
          </mxGeometry>
        </mxCell>
        <mxCell id="DkTkAI5OAFfcTrOTKt4v-18" value="" style="endArrow=classic;html=1;rounded=0;exitX=1;exitY=0.5;exitDx=0;exitDy=0;entryX=1;entryY=0.75;entryDx=0;entryDy=0;" parent="WIyWlLk6GJQsqaUBKTNV-1" source="DkTkAI5OAFfcTrOTKt4v-13" target="DkTkAI5OAFfcTrOTKt4v-2" edge="1">
          <mxGeometry width="50" height="50" relative="1" as="geometry">
            <mxPoint x="270" y="520" as="sourcePoint" />
            <mxPoint x="320" y="470" as="targetPoint" />
            <Array as="points">
              <mxPoint x="600" y="600" />
              <mxPoint x="600" y="315" />
            </Array>
          </mxGeometry>
        </mxCell>
        <mxCell id="DkTkAI5OAFfcTrOTKt4v-19" value="LeaveGame" style="edgeLabel;html=1;align=center;verticalAlign=middle;resizable=0;points=[];" parent="DkTkAI5OAFfcTrOTKt4v-18" vertex="1" connectable="0">
          <mxGeometry x="-0.1948" relative="1" as="geometry">
            <mxPoint as="offset" />
          </mxGeometry>
        </mxCell>
        <mxCell id="DkTkAI5OAFfcTrOTKt4v-20" value="" style="endArrow=classic;html=1;rounded=0;exitX=0.5;exitY=0;exitDx=0;exitDy=0;entryX=0.75;entryY=1;entryDx=0;entryDy=0;" parent="WIyWlLk6GJQsqaUBKTNV-1" source="DkTkAI5OAFfcTrOTKt4v-9" target="DkTkAI5OAFfcTrOTKt4v-2" edge="1">
          <mxGeometry width="50" height="50" relative="1" as="geometry">
            <mxPoint x="310" y="390" as="sourcePoint" />
            <mxPoint x="360" y="340" as="targetPoint" />
          </mxGeometry>
        </mxCell>
        <mxCell id="DkTkAI5OAFfcTrOTKt4v-21" value="GetRoomState" style="edgeLabel;html=1;align=center;verticalAlign=middle;resizable=0;points=[];" parent="DkTkAI5OAFfcTrOTKt4v-20" vertex="1" connectable="0">
          <mxGeometry x="-0.5812" y="-2" relative="1" as="geometry">
            <mxPoint as="offset" />
          </mxGeometry>
        </mxCell>
        <mxCell id="DkTkAI5OAFfcTrOTKt4v-22" value="" style="endArrow=classic;html=1;rounded=0;exitX=0.25;exitY=0;exitDx=0;exitDy=0;entryX=0;entryY=0.75;entryDx=0;entryDy=0;" parent="WIyWlLk6GJQsqaUBKTNV-1" source="DkTkAI5OAFfcTrOTKt4v-6" target="DkTkAI5OAFfcTrOTKt4v-2" edge="1">
          <mxGeometry width="50" height="50" relative="1" as="geometry">
            <mxPoint x="310" y="390" as="sourcePoint" />
            <mxPoint x="360" y="340" as="targetPoint" />
          </mxGeometry>
        </mxCell>
        <mxCell id="DkTkAI5OAFfcTrOTKt4v-26" value="CloseRoom" style="edgeLabel;html=1;align=center;verticalAlign=middle;resizable=0;points=[];" parent="DkTkAI5OAFfcTrOTKt4v-22" vertex="1" connectable="0">
          <mxGeometry x="0.1713" y="-1" relative="1" as="geometry">
            <mxPoint as="offset" />
          </mxGeometry>
        </mxCell>
      </root>
    </mxGraphModel>
  </diagram>
</mxfile>
